<?xml version="1.0" encoding="UTF-8"?>
<!DOCTYPE svg PUBLIC "-//W3C//DTD SVG 1.1//EN" "http://www.w3.org/Graphics/SVG/1.1/DTD/svg11.dtd">
<svg xmlns="http://www.w3.org/2000/svg" version="1.1" width="500px" height="500px" style="shape-rendering:geometricPrecision; text-rendering:geometricPrecision; image-rendering:optimizeQuality; fill-rule:evenodd; clip-rule:evenodd" xmlns:xlink="http://www.w3.org/1999/xlink">
<g><path style="opacity:1" fill="#282726" d="M -0.5,-0.5 C 166.167,-0.5 332.833,-0.5 499.5,-0.5C 499.5,166.167 499.5,332.833 499.5,499.5C 332.833,499.5 166.167,499.5 -0.5,499.5C -0.5,332.833 -0.5,166.167 -0.5,-0.5 Z"/></g>
<g><path style="opacity:1" fill="#f4f3f1" d="M 399.5,169.5 C 375.174,170.175 350.84,170.675 326.5,171C 322.312,171.176 318.312,171.676 314.5,172.5C 261.497,173.383 208.497,174.383 155.5,175.5C 138.167,175.333 120.833,175.167 103.5,175C 93.4575,174.832 83.4575,174.165 73.5,173C 70.4605,171.969 67.9605,170.135 66,167.5C 63.8554,163.066 62.5221,158.4 62,153.5C 61.3333,143.833 61.3333,134.167 62,124.5C 70.1902,119.882 79.0236,117.048 88.5,116C 133.193,111.16 178.026,108.994 223,109.5C 273.208,109.7 323.374,111.2 373.5,114C 390.565,115.384 407.565,117.218 424.5,119.5C 425.46,130.55 426.793,141.55 428.5,152.5C 429.11,158.17 427.444,163.004 423.5,167C 415.534,168.164 407.534,168.998 399.5,169.5 Z"/></g>
<g><path style="opacity:1" fill="#b4b3b1" d="M 399.5,169.5 C 396.023,170.323 392.356,170.823 388.5,171C 363.832,171.528 339.166,172.028 314.5,172.5C 318.312,171.676 322.312,171.176 326.5,171C 350.84,170.675 375.174,170.175 399.5,169.5 Z"/></g>
<g><path style="opacity:1" fill="#bbaa98" d="M 108.5,219.5 C 168.847,219.156 229.18,219.823 289.5,221.5C 314.509,221.146 339.509,220.48 364.5,219.5C 382.374,218.851 400.041,220.351 417.5,224C 418.931,224.465 420.097,225.299 421,226.5C 422.42,239.529 424.087,252.529 426,265.5C 426.667,270.833 426.667,276.167 426,281.5C 425.691,282.766 425.191,283.933 424.5,285C 335.164,284.009 245.83,284.509 156.5,286.5C 127.749,286.495 99.0819,284.995 70.5,282C 66.462,281.101 62.7954,279.434 59.5,277C 58.8095,275.933 58.3095,274.766 58,273.5C 57.0531,259.431 57.3865,245.431 59,231.5C 64.5797,226.744 71.0797,223.911 78.5,223C 88.6731,222.046 98.6731,220.879 108.5,219.5 Z"/></g>
<g><path style="opacity:1" fill="#f4f3f1" d="M 422.5,394.5 C 417.32,394.847 412.32,395.513 407.5,396.5C 379.176,397.557 350.843,397.724 322.5,397C 295.978,395.686 269.478,394.186 243,392.5C 204.184,394.284 165.35,395.618 126.5,396.5C 109.788,396.516 93.1216,395.683 76.5,394C 64.8193,392.324 58.8193,385.658 58.5,374C 59.1563,365.092 60.3229,356.259 62,347.5C 66.0371,344.398 70.5371,342.232 75.5,341C 102.621,336.24 129.954,333.573 157.5,333C 222.841,332.145 288.174,332.478 353.5,334C 373.943,334.931 394.276,336.931 414.5,340C 418.894,341.131 423.227,342.465 427.5,344C 429,344.833 430.167,346 431,347.5C 431.793,358.869 431.46,370.202 430,381.5C 429.015,386.815 426.515,391.148 422.5,394.5 Z"/></g>
<g><path style="opacity:1" fill="#555453" d="M 422.5,394.5 C 422.082,395.222 421.416,395.722 420.5,396C 416.179,396.499 411.846,396.666 407.5,396.5C 412.32,395.513 417.32,394.847 422.5,394.5 Z"/></g>
</svg>
