<?xml version="1.0" encoding="UTF-8"?>
<!DOCTYPE svg PUBLIC "-//W3C//DTD SVG 1.1//EN" "http://www.w3.org/Graphics/SVG/1.1/DTD/svg11.dtd">
<svg xmlns="http://www.w3.org/2000/svg" version="1.1" width="500px" height="500px" style="shape-rendering:geometricPrecision; text-rendering:geometricPrecision; image-rendering:optimizeQuality; fill-rule:evenodd; clip-rule:evenodd" xmlns:xlink="http://www.w3.org/1999/xlink">
<g><path style="opacity:1" fill="#282726" d="M -0.5,-0.5 C 166.167,-0.5 332.833,-0.5 499.5,-0.5C 499.5,166.167 499.5,332.833 499.5,499.5C 332.833,499.5 166.167,499.5 -0.5,499.5C -0.5,332.833 -0.5,166.167 -0.5,-0.5 Z"/></g>
<g><path style="opacity:1" fill="#bbaa98" d="M 243.5,188.5 C 245.9,191.903 248.9,194.57 252.5,196.5C 253.287,198.104 254.62,198.771 256.5,198.5C 236.982,217.075 217.316,235.408 197.5,253.5C 197.649,252.448 197.483,251.448 197,250.5C 166.305,220.139 135.972,189.472 106,158.5C 98.0641,145.72 91.0641,132.387 85,118.5C 84.5223,101.624 92.0223,89.7909 107.5,83C 113.649,82.215 119.649,82.8817 125.5,85C 133.812,91.305 142.145,97.6383 150.5,104C 181.345,132.345 212.345,160.512 243.5,188.5 Z"/></g>
<g><path style="opacity:1" fill="#f5f4f2" d="M 302.5,245.5 C 283.409,262.713 264.742,280.38 246.5,298.5C 221.795,321.371 198.629,345.705 177,371.5C 171.833,378.667 166.667,385.833 161.5,393C 156.331,394.544 151.331,396.544 146.5,399C 137.271,405.777 127.604,411.777 117.5,417C 110.467,419.403 103.801,418.737 97.5,415C 90.0671,409.085 84.4004,401.919 80.5,393.5C 80.4372,388.797 80.7705,384.13 81.5,379.5C 82.8485,374.953 84.6818,370.619 87,366.5C 95.6566,353.51 105.49,341.51 116.5,330.5C 123.833,325.167 130.167,318.833 135.5,311.5C 154.745,294.592 173.412,276.926 191.5,258.5C 194.089,257.581 196.089,255.914 197.5,253.5C 217.316,235.408 236.982,217.075 256.5,198.5C 276.449,180.218 295.783,161.218 314.5,141.5C 330.432,123.732 347.765,107.565 366.5,93C 372.681,90.662 379.015,88.8287 385.5,87.5C 388.111,87.5559 390.278,88.5559 392,90.5C 398.248,99.4189 405.248,107.752 413,115.5C 414.52,119.375 414.854,123.375 414,127.5C 408.443,139.592 401.11,150.592 392,160.5C 372.045,181.128 351.211,200.628 329.5,219C 320.632,228.036 311.632,236.869 302.5,245.5 Z"/></g>
<g><path style="opacity:1" fill="#dddcda" d="M 314.5,141.5 C 295.783,161.218 276.449,180.218 256.5,198.5C 275.217,178.782 294.551,159.782 314.5,141.5 Z"/></g>
<g><path style="opacity:1" fill="#5e5750" d="M 243.5,188.5 C 247.1,190.43 250.1,193.097 252.5,196.5C 248.9,194.57 245.9,191.903 243.5,188.5 Z"/></g>
<g><path style="opacity:1" fill="#bbaa98" d="M 302.5,245.5 C 303.834,248.355 305.834,250.855 308.5,253C 316.329,260.072 324.663,266.405 333.5,272C 362.612,303.768 389.446,337.268 414,372.5C 414.667,373.5 414.667,374.5 414,375.5C 402.49,386.344 391.657,397.844 381.5,410C 377.439,413.35 372.773,414.35 367.5,413C 362.367,410.265 357.367,407.265 352.5,404C 316.66,369.326 281.326,334.16 246.5,298.5C 264.742,280.38 283.409,262.713 302.5,245.5 Z"/></g>
<g><path style="opacity:1" fill="#a7a5a4" d="M 197.5,253.5 C 196.089,255.914 194.089,257.581 191.5,258.5C 192.911,256.086 194.911,254.419 197.5,253.5 Z"/></g>
<g><path style="opacity:1" fill="#bfbebd" d="M 135.5,311.5 C 130.167,318.833 123.833,325.167 116.5,330.5C 122.5,323.833 128.833,317.5 135.5,311.5 Z"/></g>
<g><path style="opacity:1" fill="#c7c6c4" d="M 81.5,379.5 C 80.7705,384.13 80.4372,388.797 80.5,393.5C 79.8389,391.866 79.5056,390.033 79.5,388C 79.3603,384.85 80.027,382.017 81.5,379.5 Z"/></g>
</svg>
