{
  "accessors": [
    {
      "bufferView": 2,
      "componentType": 5126,
      "count": 65532,
      "max": [
        441.78204345703125,
        377.63690185546875,
        605.3521118164063
      ],
      "min": [
        -7.595740795135498,
        -426.5552978515625,
        -4.78544282913208
      ],
      "type": "VEC3"
    },
    {
      "bufferView": 2,
      "byteOffset": 786384,
      "componentType": 5126,
      "count": 65532,
      "max": [
        0.9999911785125732,
        0.9999868869781494,
        0.9999442100524902
      ],
      "min": [
        -0.9999446868896484,
        -0.999991774559021,
        -0.999975323677063
      ],
      "type": "VEC3"
    },
    {
      "bufferView": 1,
      "componentType": 5126,
      "count": 65532,
      "max": [
        304.8901672363281,
        413.95440673828125
      ],
      "min": [
        -290.4558410644531,
        -290.4541015625
      ],
      "type": "VEC2"
    },
    {
      "bufferView": 0,
      "componentType": 5125,
      "count": 243828,
      "type": "SCALAR"
    },
    {
      "bufferView": 2,
      "byteOffset": 1572768,
      "componentType": 5126,
      "count": 65532,
      "max": [
        84.04938507080078,
        -1.7347160577774048,
        284.5840148925781
      ],
      "min": [
        -4.785090923309326,
        -145.72630310058594,
        -4.542040824890137
      ],
      "type": "VEC3"
    },
    {
      "bufferView": 2,
      "byteOffset": 2359152,
      "componentType": 5126,
      "count": 65532,
      "max": [
        0.9999970197677612,
        0.9999490976333618,
        0.9999971389770508
      ],
      "min": [
        -0.9999847412109375,
        -0.9999819993972778,
        -0.9999949932098389
      ],
      "type": "VEC3"
    },
    {
      "bufferView": 1,
      "byteOffset": 524256,
      "componentType": 5126,
      "count": 65532,
      "max": [
        58.8851203918457,
        193.36842346191406
      ],
      "min": [
        -97.33501434326172,
        -97.33580017089844
      ],
      "type": "VEC2"
    },
    {
      "bufferView": 0,
      "byteOffset": 975312,
      "componentType": 5125,
      "count": 242355,
      "type": "SCALAR"
    },
    {
      "bufferView": 2,
      "byteOffset": 3145536,
      "componentType": 5126,
      "count": 65532,
      "max": [
        55.293701171875,
        94.57642364501953,
        89.48511505126953
      ],
      "min": [
        -29.207412719726563,
        -76.28182220458984,
        -74.97965240478516
      ],
      "type": "VEC3"
    },
    {
      "bufferView": 2,
      "byteOffset": 3931920,
      "componentType": 5126,
      "count": 65532,
      "max": [
        0.9999911785125732,
        0.9999651908874512,
        0.9999641180038452
      ],
      "min": [
        -0.9999181032180786,
        -0.9999638795852661,
        -0.9999343156814575
      ],
      "type": "VEC3"
    },
    {
      "bufferView": 1,
      "byteOffset": 1048512,
      "componentType": 5126,
      "count": 65532,
      "max": [
        67.91521453857422,
        67.91521453857422
      ],
      "min": [
        -49.58031463623047,
        -53.89507293701172
      ],
      "type": "VEC2"
    },
    {
      "bufferView": 0,
      "byteOffset": 1944732,
      "componentType": 5125,
      "count": 252831,
      "type": "SCALAR"
    },
    {
      "bufferView": 2,
      "byteOffset": 4718304,
      "componentType": 5126,
      "count": 65532,
      "max": [
        4.432511806488037,
        324.33209228515625,
        398.9450378417969
      ],
      "min": [
        -496.0648193359375,
        -458.57391357421875,
        -809.3970336914063
      ],
      "type": "VEC3"
    },
    {
      "bufferView": 2,
      "byteOffset": 5504688,
      "componentType": 5126,
      "count": 65532,
      "max": [
        0.9997664093971252,
        0.9996263384819031,
        0.9999638795852661
      ],
      "min": [
        -0.9999781847000122,
        -0.9997802376747131,
        -0.9999971389770508
      ],
      "type": "VEC3"
    },
    {
      "bufferView": 1,
      "byteOffset": 1572768,
      "componentType": 5126,
      "count": 65532,
      "max": [
        225.909423828125,
        272.0127258300781
      ],
      "min": [
        -340.0469055175781,
        -558.9375
      ],
      "type": "VEC2"
    },
    {
      "bufferView": 0,
      "byteOffset": 2956056,
      "componentType": 5125,
      "count": 256185,
      "type": "SCALAR"
    },
    {
      "bufferView": 2,
      "byteOffset": 6291072,
      "componentType": 5126,
      "count": 65533,
      "max": [
        -0.014031999744474888,
        42.99974822998047,
        109.29762268066406
      ],
      "min": [
        -263.3827819824219,
        -106.89280700683594,
        -66.28041076660156
      ],
      "type": "VEC3"
    },
    {
      "bufferView": 2,
      "byteOffset": 7077468,
      "componentType": 5126,
      "count": 65533,
      "max": [
        0.9998855590820313,
        0.9999251365661621,
        0.9999983310699463
      ],
      "min": [
        -0.9999181032180786,
        -0.999976396560669,
        -0.9999855756759644
      ],
      "type": "VEC3"
    },
    {
      "bufferView": 1,
      "byteOffset": 2097024,
      "componentType": 5126,
      "count": 65533,
      "max": [
        32.44702911376953,
        72.82844543457031
      ],
      "min": [
        -180.03648376464844,
        -70.63082885742188
      ],
      "type": "VEC2"
    },
    {
      "bufferView": 0,
      "byteOffset": 3980796,
      "componentType": 5125,
      "count": 217107,
      "type": "SCALAR"
    },
    {
      "bufferView": 2,
      "byteOffset": 7863864,
      "componentType": 5126,
      "count": 26055,
      "max": [
        65.69369506835938,
        59.35466766357422,
        28.70669174194336
      ],
      "min": [
        -2.4440340995788574,
        -124.90245819091797,
        -77.08161926269531
      ],
      "type": "VEC3"
    },
    {
      "bufferView": 2,
      "byteOffset": 8176524,
      "componentType": 5126,
      "count": 26055,
      "max": [
        0.9999911785125732,
        0.9999700784683228,
        0.9999717473983765
      ],
      "min": [
        -0.999985933303833,
        -0.9998676776885986,
        -0.9998795986175537
      ],
      "type": "VEC3"
    },
    {
      "bufferView": 1,
      "byteOffset": 2621288,
      "componentType": 5126,
      "count": 26055,
      "max": [
        46.262306213378906,
        43.69397735595703
      ],
      "min": [
        -83.0128173828125,
        -83.0128173828125
      ],
      "type": "VEC2"
    },
    {
      "bufferView": 0,
      "byteOffset": 4849224,
      "componentType": 5125,
      "count": 83274,
      "type": "SCALAR"
    }
  ],
  "asset": {
    "extras": {
      "author": "lapadique (https://sketchfab.com/lapadique)",
      "license": "CC-BY-4.0 (http://creativecommons.org/licenses/by/4.0/)",
      "source": "https://sketchfab.com/3d-models/splash-a56597d04c8b4c5bb72c78ce442bc190",
      "title": "Splash"
    },
    "generator": "Sketchfab-12.82.2",
    "version": "2.0"
  },
  "bufferViews": [
    {
      "buffer": 0,
      "byteLength": 5182320,
      "name": "floatBufferViews",
      "target": 34963
    },
    {
      "buffer": 0,
      "byteLength": 2829728,
      "byteOffset": 5182320,
      "byteStride": 8,
      "name": "floatBufferViews",
      "target": 34962
    },
    {
      "buffer": 0,
      "byteLength": 8489184,
      "byteOffset": 8012048,
      "byteStride": 12,
      "name": "floatBufferViews",
      "target": 34962
    }
  ],
  "buffers": [
    {
      "byteLength": 16501232,
      "uri": "scene.bin"
    }
  ],
  "materials": [
    {
      "doubleSided": true,
      "name": "Glass_Simple",
      "pbrMetallicRoughness": {
        "metallicFactor": 0.0,
        "roughnessFactor": 0.6
      }
    }
  ],
  "meshes": [
    {
      "name": "Object_0",
      "primitives": [
        {
          "attributes": {
            "NORMAL": 1,
            "POSITION": 0,
            "TEXCOORD_0": 2
          },
          "indices": 3,
          "material": 0,
          "mode": 4
        }
      ]
    },
    {
      "name": "Object_1",
      "primitives": [
        {
          "attributes": {
            "NORMAL": 5,
            "POSITION": 4,
            "TEXCOORD_0": 6
          },
          "indices": 7,
          "material": 0,
          "mode": 4
        }
      ]
    },
    {
      "name": "Object_2",
      "primitives": [
        {
          "attributes": {
            "NORMAL": 9,
            "POSITION": 8,
            "TEXCOORD_0": 10
          },
          "indices": 11,
          "material": 0,
          "mode": 4
        }
      ]
    },
    {
      "name": "Object_3",
      "primitives": [
        {
          "attributes": {
            "NORMAL": 13,
            "POSITION": 12,
            "TEXCOORD_0": 14
          },
          "indices": 15,
          "material": 0,
          "mode": 4
        }
      ]
    },
    {
      "name": "Object_4",
      "primitives": [
        {
          "attributes": {
            "NORMAL": 17,
            "POSITION": 16,
            "TEXCOORD_0": 18
          },
          "indices": 19,
          "material": 0,
          "mode": 4
        }
      ]
    },
    {
      "name": "Object_5",
      "primitives": [
        {
          "attributes": {
            "NORMAL": 21,
            "POSITION": 20,
            "TEXCOORD_0": 22
          },
          "indices": 23,
          "material": 0,
          "mode": 4
        }
      ]
    }
  ],
  "nodes": [
    {
      "children": [
        1
      ],
      "matrix": [
        0.09435170888900757,
        0.0,
        0.0,
        0.0,
        0.0,
        2.095028792426125e-17,
        -0.09435170888900757,
        0.0,
        0.0,
        0.09435170888900757,
        2.095028792426125e-17,
        0.0,
        0.0,
        0.0,
        0.0,
        1.0
      ],
      "name": "Sketchfab_model"
    },
    {
      "children": [
        2,
        3,
        4,
        5,
        6,
        7
      ],
      "name": "SPLASH.obj.cleaner.materialmerger.gles"
    },
    {
      "mesh": 0,
      "name": "Object_2"
    },
    {
      "mesh": 1,
      "name": "Object_3"
    },
    {
      "mesh": 2,
      "name": "Object_4"
    },
    {
      "mesh": 3,
      "name": "Object_5"
    },
    {
      "mesh": 4,
      "name": "Object_6"
    },
    {
      "mesh": 5,
      "name": "Object_7"
    }
  ],
  "scene": 0,
  "scenes": [
    {
      "name": "Sketchfab_Scene",
      "nodes": [
        0
      ]
    }
  ]
}
